<?xml version="1.0" encoding="UTF-8" standalone="no"?>
<svg
   xmlns:dc="http://purl.org/dc/elements/1.1/"
   xmlns:cc="http://creativecommons.org/ns#"
   xmlns:rdf="http://www.w3.org/1999/02/22-rdf-syntax-ns#"
   xmlns:svg="http://www.w3.org/2000/svg"
   xmlns="http://www.w3.org/2000/svg"
   xmlns:sodipodi="http://sodipodi.sourceforge.net/DTD/sodipodi-0.dtd"
   xmlns:inkscape="http://www.inkscape.org/namespaces/inkscape"
   viewBox="0 0 429.08 363.03"
   version="1.1"
   id="svg225"
   sodipodi:docname="nothing.svg"
   inkscape:version="1.0.2 (e86c8708, 2021-01-15)">
  <metadata
     id="metadata229">
    <rdf:RDF>
      <cc:Work
         rdf:about="">
        <dc:format>image/svg+xml</dc:format>
        <dc:type
           rdf:resource="http://purl.org/dc/dcmitype/StillImage" />
      </cc:Work>
    </rdf:RDF>
  </metadata>
  <sodipodi:namedview
     pagecolor="#ffffff"
     bordercolor="#666666"
     borderopacity="1"
     objecttolerance="10"
     gridtolerance="10"
     guidetolerance="10"
     inkscape:pageopacity="0"
     inkscape:pageshadow="2"
     inkscape:window-width="1440"
     inkscape:window-height="900"
     id="namedview227"
     showgrid="false"
     inkscape:zoom="1.0286171"
     inkscape:cx="22.382336"
     inkscape:cy="220.30133"
     inkscape:window-x="0"
     inkscape:window-y="0"
     inkscape:window-maximized="0"
     inkscape:current-layer="Layer_1-2" />
  <defs
     id="defs12">
    <style
       id="style10">.cls-1{fill:#e0e7ff;}.cls-2{fill:#fbf2ea;}.cls-3{isolation:isolate;}.cls-4,.cls-5{fill:#6772e5;}.cls-10,.cls-11,.cls-12,.cls-13,.cls-15,.cls-16,.cls-5,.cls-6,.cls-7,.cls-8,.cls-9{fill-rule:evenodd;}.cls-19,.cls-6{fill:#fff;}.cls-7{fill:#e1b3bf;}.cls-8{fill:#d68096;}.cls-9{fill:#ca4c5a;}.cls-10{fill:#2e2450;}.cls-11{fill:#d78f74;}.cls-12,.cls-13{fill:#4772d1;}.cls-12{stroke:#4772d1;}.cls-12,.cls-14{stroke-linecap:round;stroke-linejoin:round;stroke-width:0.57px;}.cls-14{fill:none;stroke:#6e5c9f;}.cls-15{fill:#bb4f58;}.cls-16{fill:#f2dce2;}.cls-17{fill:#79d2f4;}.cls-18{fill:#1b165b;}.cls-20{fill:#fda734;}</style>
  </defs>
  <title
     id="title14">nothing-fix</title>
  <g
     id="Layer_1-2"
     data-name="Layer 1">
    <g
       id="g1224">
      <polygon
         class="cls-1"
         points="2.26,12.87 0,60.26 417.59,46.84 413.46,0 "
         id="polygon16" />
      <polygon
         class="cls-2"
         points="16.45,304.87 11.42,352.05 429.08,363.03 427.7,316.03 "
         id="polygon18" />
      <g
         class="cls-3"
         id="g60">
        <g
           class="cls-3"
           id="g38">
          <path
             class="cls-4"
             d="m 84.23,19.86 a 0.54,0.54 0 0 1 0.18,0.44 l 0.94,24.33 a 1,1 0 0 1 -0.18,0.67 0.69,0.69 0 0 1 -0.52,0.27 v 0 a 0.87,0.87 0 0 1 -0.48,-0.11 2.73,2.73 0 0 1 -0.42,-0.3 l -0.31,-0.27 -16,-13 0.56,13.3 a 0.56,0.56 0 0 1 -0.15,0.45 0.58,0.58 0 0 1 -0.44,0.19 L 62.91,46 A 0.6,0.6 0 0 1 62.25,45.4 L 61.32,21 a 0.91,0.91 0 0 1 0.18,-0.62 0.65,0.65 0 0 1 0.49,-0.26 h 0.06 a 0.62,0.62 0 0 1 0.4,0.1 2.16,2.16 0 0 1 0.38,0.28 l 0.32,0.26 16.1,13.05 -0.51,-13.33 a 0.57,0.57 0 0 1 0.59,-0.64 l 4.44,-0.17 a 0.6,0.6 0 0 1 0.46,0.19 z"
             id="path20" />
          <path
             class="cls-4"
             d="m 89.92,31.91 a 8.79,8.79 0 0 1 3.18,-3.37 9.5,9.5 0 0 1 9.22,-0.35 9,9 0 0 1 3.76,12.13 8.77,8.77 0 0 1 -3.17,3.37 9.13,9.13 0 0 1 -4.55,1.37 9.38,9.38 0 0 1 -4.67,-1 9,9 0 0 1 -3.43,-3.12 9,9 0 0 1 -0.34,-9 z m 4.71,6.42 a 3.85,3.85 0 0 0 3.51,1.87 4,4 0 0 0 2,-0.6 3.77,3.77 0 0 0 1.36,-1.52 4.41,4.41 0 0 0 0.43,-2.12 4.34,4.34 0 0 0 -0.59,-2.07 3.78,3.78 0 0 0 -1.48,-1.41 3.94,3.94 0 0 0 -5.4,1.68 4.26,4.26 0 0 0 -0.46,2.11 4.17,4.17 0 0 0 0.63,2.06 z"
             id="path22" />
          <path
             class="cls-4"
             d="m 119.67,39.63 a 0.64,0.64 0 0 1 0.27,0.52 l 0.13,3.3 a 0.67,0.67 0 0 1 -0.25,0.56 1,1 0 0 1 -0.68,0.25 8.1,8.1 0 0 1 -5.73,-1.62 7.09,7.09 0 0 1 -2.2,-5.4 l -0.21,-5.93 -1.76,0.06 a 0.53,0.53 0 0 1 -0.41,-0.12 0.57,0.57 0 0 1 -0.16,-0.41 l -0.12,-3.09 a 0.6,0.6 0 0 1 0.13,-0.43 0.55,0.55 0 0 1 0.4,-0.17 l 1.76,-0.06 -0.17,-4.46 a 0.69,0.69 0 0 1 0.11,-0.43 0.68,0.68 0 0 1 0.35,-0.26 l 3.9,-1 0.24,-0.05 c 0.28,0 0.44,0.16 0.45,0.51 l 0.21,5.47 2.93,-0.11 a 0.56,0.56 0 0 1 0.42,0.13 0.62,0.62 0 0 1 0.16,0.42 l 0.11,3.1 A 0.49,0.49 0 0 1 119,31 l -2.91,0.11 0.23,6 A 2.37,2.37 0 0 0 117,39 a 2.93,2.93 0 0 0 2,0.49 1,1 0 0 1 0.67,0.14 z"
             id="path24" />
          <path
             class="cls-4"
             d="m 136.24,26.6 a 5.66,5.66 0 0 1 2.29,2.51 9.72,9.72 0 0 1 0.91,4 l 0.36,9.4 a 0.56,0.56 0 0 1 -0.13,0.43 0.55,0.55 0 0 1 -0.43,0.17 l -3.94,0.16 a 0.61,0.61 0 0 1 -0.44,-0.14 0.57,0.57 0 0 1 -0.16,-0.43 l -0.35,-9.09 a 3.52,3.52 0 0 0 -0.79,-2.29 2.63,2.63 0 0 0 -2.18,-0.77 3,3 0 0 0 -1.61,0.5 2.9,2.9 0 0 0 -1,1.21 3.6,3.6 0 0 0 -0.31,1.63 l 0.35,9.06 a 0.5,0.5 0 0 1 -0.55,0.59 l -4,0.15 a 0.56,0.56 0 0 1 -0.42,-0.13 0.62,0.62 0 0 1 -0.16,-0.42 l -0.93,-24.35 a 0.48,0.48 0 0 1 0.53,-0.57 l 4,-0.15 a 0.49,0.49 0 0 1 0.59,0.53 l 0.37,9.64 a 6,6 0 0 1 2,-1.69 5.83,5.83 0 0 1 2.56,-0.7 6.25,6.25 0 0 1 3.44,0.75 z"
             id="path26" />
          <path
             class="cls-4"
             d="m 144.08,23.39 a 2.84,2.84 0 0 1 -1.09,-1 2.77,2.77 0 0 1 -0.44,-1.43 2.84,2.84 0 0 1 0.33,-1.47 2.94,2.94 0 0 1 1,-1.09 2.84,2.84 0 0 1 1.44,-0.45 2.75,2.75 0 0 1 1.47,0.34 3,3 0 0 1 1.53,2.44 2.84,2.84 0 0 1 -1.32,2.55 2.77,2.77 0 0 1 -1.43,0.44 2.9,2.9 0 0 1 -1.49,-0.33 z m 4,2.42 a 0.6,0.6 0 0 1 0.17,0.41 l 0.61,15.93 a 0.53,0.53 0 0 1 -0.14,0.42 0.58,0.58 0 0 1 -0.41,0.17 l -4,0.15 a 0.56,0.56 0 0 1 -0.42,-0.13 0.62,0.62 0 0 1 -0.16,-0.42 l -0.61,-15.92 a 0.6,0.6 0 0 1 0.13,-0.43 0.51,0.51 0 0 1 0.4,-0.16 l 4,-0.16 a 0.58,0.58 0 0 1 0.4,0.14 z"
             id="path28" />
          <path
             class="cls-4"
             d="m 166.05,25.44 a 6.17,6.17 0 0 1 2.49,2.56 8.78,8.78 0 0 1 1,4 l 0.36,9.38 a 0.51,0.51 0 0 1 -0.56,0.61 l -3.94,0.15 a 0.61,0.61 0 0 1 -0.44,-0.13 0.63,0.63 0 0 1 -0.17,-0.43 l -0.35,-9.08 a 3.09,3.09 0 0 0 -1,-2.26 3.23,3.23 0 0 0 -2.43,-0.79 3.42,3.42 0 0 0 -1.72,0.51 3.32,3.32 0 0 0 -1.23,1.24 2.89,2.89 0 0 0 -0.41,1.61 l 0.35,9.05 a 0.52,0.52 0 0 1 -0.58,0.6 l -3.94,0.16 a 0.54,0.54 0 0 1 -0.61,-0.57 L 152.3,26.1 a 0.58,0.58 0 0 1 0.58,-0.63 l 2.3,-0.09 a 0.78,0.78 0 0 1 0.37,0.09 0.72,0.72 0 0 1 0.28,0.27 l 1,2.41 a 6.33,6.33 0 0 1 2.31,-2.44 6.47,6.47 0 0 1 3.27,-1 7,7 0 0 1 3.64,0.73 z"
             id="path30" />
          <path
             class="cls-4"
             d="m 189.87,24.21 a 0.62,0.62 0 0 1 0.18,0.44 l 0.59,15.47 a 8.11,8.11 0 0 1 -0.92,4.26 7.5,7.5 0 0 1 -2.93,3 9.46,9.46 0 0 1 -4.41,1.19 15.13,15.13 0 0 1 -3.35,-0.24 10.87,10.87 0 0 1 -2.95,-1 0.5,0.5 0 0 1 -0.25,-0.44 1.13,1.13 0 0 1 0.08,-0.45 L 177,43.75 a 0.53,0.53 0 0 1 0.5,-0.31 1.34,1.34 0 0 1 0.35,0 17.26,17.26 0 0 0 2.1,0.49 11,11 0 0 0 2.25,0.17 3.56,3.56 0 0 0 2.6,-1.13 3.87,3.87 0 0 0 0.94,-2.75 v -1 a 6.64,6.64 0 0 1 -2.12,1.5 6.9,6.9 0 0 1 -2.63,0.61 7.66,7.66 0 0 1 -4.15,-1 8,8 0 0 1 -3,-2.94 8.7,8.7 0 0 1 -1.22,-4.18 10,10 0 0 1 0.87,-4.67 8,8 0 0 1 2.77,-3.32 7.47,7.47 0 0 1 4,-1.33 6.82,6.82 0 0 1 3.13,0.6 6.64,6.64 0 0 1 2.45,1.94 l 0.68,-1.95 a 0.68,0.68 0 0 1 0.61,-0.41 l 2.29,-0.09 a 0.6,0.6 0 0 1 0.45,0.23 z m -6.14,11.64 a 3.58,3.58 0 0 0 1.35,-1.38 3.7,3.7 0 0 0 0.43,-1.9 3.78,3.78 0 0 0 -0.58,-1.93 3.57,3.57 0 0 0 -1.45,-1.3 4.37,4.37 0 0 0 -4,0.15 3.49,3.49 0 0 0 -1.31,1.41 3.9,3.9 0 0 0 -0.41,2 3.7,3.7 0 0 0 0.57,1.86 3.36,3.36 0 0 0 1.38,1.24 4,4 0 0 0 2,0.4 4.2,4.2 0 0 0 2.02,-0.55 z"
             id="path32" />
          <path
             class="cls-4"
             d="m 228.12,14.32 a 0.61,0.61 0 0 1 0.19,0.46 L 229.24,39 a 0.63,0.63 0 0 1 -0.15,0.48 0.67,0.67 0 0 1 -0.46,0.18 l -4.44,0.17 a 0.57,0.57 0 0 1 -0.46,-0.16 0.62,0.62 0 0 1 -0.19,-0.45 l -0.27,-7.1 -11.18,0.43 0.27,7.1 a 0.64,0.64 0 0 1 -0.16,0.47 0.62,0.62 0 0 1 -0.45,0.19 l -4.44,0.17 a 0.62,0.62 0 0 1 -0.47,-0.15 0.63,0.63 0 0 1 -0.19,-0.46 l -0.93,-24.22 a 0.57,0.57 0 0 1 0.15,-0.46 0.67,0.67 0 0 1 0.46,-0.18 l 4.44,-0.17 a 0.64,0.64 0 0 1 0.47,0.15 0.6,0.6 0 0 1 0.19,0.44 l 0.46,12.13 11.19,-0.43 L 222.61,15 a 0.65,0.65 0 0 1 0.15,-0.46 0.62,0.62 0 0 1 0.45,-0.19 l 4.44,-0.17 a 0.63,0.63 0 0 1 0.47,0.14 z"
             id="path34" />
          <path
             class="cls-4"
             d="m 250,30.91 a 2.69,2.69 0 0 1 -0.81,1.06 2,2 0 0 1 -1.16,0.43 l -9.76,0.37 a 3.57,3.57 0 0 0 1.55,1.6 4.53,4.53 0 0 0 2.41,0.53 4.76,4.76 0 0 0 1.57,-0.36 5.86,5.86 0 0 0 1.48,-0.83 0.73,0.73 0 0 1 0.38,-0.15 0.66,0.66 0 0 1 0.55,0.28 l 2,2.48 a 0.9,0.9 0 0 1 0.15,0.41 0.67,0.67 0 0 1 -0.22,0.51 9,9 0 0 1 -2.72,1.6 9.8,9.8 0 0 1 -3.16,0.71 9.3,9.3 0 0 1 -4.65,-1 8.82,8.82 0 0 1 -3.43,-3.12 8.59,8.59 0 0 1 -1.41,-4.43 8.95,8.95 0 0 1 4.13,-8 8.9,8.9 0 0 1 4.48,-1.37 8.78,8.78 0 0 1 4.37,0.92 8.11,8.11 0 0 1 3.19,2.84 7.92,7.92 0 0 1 1.28,4.14 3,3 0 0 1 -0.22,1.38 z m -10.7,-3.82 a 3.62,3.62 0 0 0 -1.24,1.85 l 7.07,-0.27 a 3.45,3.45 0 0 0 -1.41,-1.75 3.79,3.79 0 0 0 -2.27,-0.61 3.58,3.58 0 0 0 -2.15,0.78 z"
             id="path36" />
        </g>
        <g
           class="cls-3"
           id="g42">
          <path
             class="cls-4"
             d="m 267,22.77 a 0.82,0.82 0 0 1 -0.13,0.45 L 265.23,26 c -0.15,0.25 -0.31,0.38 -0.49,0.39 a 0.47,0.47 0 0 1 -0.34,-0.14 4.56,4.56 0 0 0 -1.21,-0.72 2.66,2.66 0 0 0 -1.17,-0.24 3.26,3.26 0 0 0 -1.87,0.63 3.94,3.94 0 0 0 -1.27,1.55 4.37,4.37 0 0 0 -0.41,2.06 l 0.32,8.38 c 0,0.39 -0.17,0.59 -0.58,0.6 l -3.93,0.15 a 0.56,0.56 0 0 1 -0.44,-0.13 0.57,0.57 0 0 1 -0.17,-0.43 l -0.61,-15.87 a 0.56,0.56 0 0 1 0.15,-0.45 0.63,0.63 0 0 1 0.43,-0.18 l 2.29,-0.09 a 0.82,0.82 0 0 1 0.38,0.09 0.7,0.7 0 0 1 0.27,0.27 l 1,2.25 a 6.78,6.78 0 0 1 2.17,-2.32 5.37,5.37 0 0 1 2.75,-1 5.85,5.85 0 0 1 2.2,0.37 6.92,6.92 0 0 1 2.05,1.13 0.54,0.54 0 0 1 0.25,0.47 z"
             id="path40" />
        </g>
        <g
           class="cls-3"
           id="g46">
          <path
             class="cls-4"
             d="m 285.09,29.56 a 2.62,2.62 0 0 1 -0.81,1.06 2,2 0 0 1 -1.15,0.43 l -9.77,0.37 a 3.49,3.49 0 0 0 1.56,1.6 4.64,4.64 0 0 0 4,0.17 5.69,5.69 0 0 0 1.48,-0.83 0.73,0.73 0 0 1 0.38,-0.15 0.63,0.63 0 0 1 0.55,0.29 l 2,2.47 a 0.9,0.9 0 0 1 0.15,0.41 0.63,0.63 0 0 1 -0.22,0.51 9,9 0 0 1 -2.72,1.6 9.74,9.74 0 0 1 -3.16,0.71 9.32,9.32 0 0 1 -4.65,-1 8.89,8.89 0 0 1 -3.43,-3.12 8.75,8.75 0 0 1 -1.39,-4.45 9,9 0 0 1 13,-8.4 8.06,8.06 0 0 1 4.47,7 3.2,3.2 0 0 1 -0.29,1.33 z m -10.66,-3.82 a 3.61,3.61 0 0 0 -1.25,1.85 l 7.07,-0.27 a 3.48,3.48 0 0 0 -1.4,-1.75 3.8,3.8 0 0 0 -2.28,-0.61 3.59,3.59 0 0 0 -2.14,0.78 z"
             id="path44" />
        </g>
        <g
           class="cls-3"
           id="g50">
          <path
             class="cls-4"
             d="m 319.59,10.8 a 0.5,0.5 0 0 1 0.19,0.41 1.11,1.11 0 0 1 -0.08,0.44 l -7.76,14.91 0.34,9 a 0.87,0.87 0 0 1 -0.19,0.63 0.8,0.8 0 0 1 -0.59,0.26 l -4,0.15 a 0.81,0.81 0 0 1 -0.9,-0.82 l -0.35,-9 -8.86,-14.28 a 1,1 0 0 1 -0.12,-0.43 0.48,0.48 0 0 1 0.17,-0.42 0.84,0.84 0 0 1 0.51,-0.16 l 4.69,-0.18 a 0.86,0.86 0 0 1 0.58,0.19 1.63,1.63 0 0 1 0.49,0.52 l 5.17,8.83 4.49,-9.21 a 1.33,1.33 0 0 1 0.44,-0.57 1.15,1.15 0 0 1 0.6,-0.21 l 4.67,-0.18 a 0.73,0.73 0 0 1 0.51,0.12 z"
             id="path48" />
        </g>
        <g
           class="cls-3"
           id="g58">
          <path
             class="cls-4"
             d="m 334.78,27.65 a 2.62,2.62 0 0 1 -0.81,1.06 2,2 0 0 1 -1.15,0.43 l -9.76,0.38 a 3.45,3.45 0 0 0 1.55,1.59 4.62,4.62 0 0 0 2.4,0.54 4.74,4.74 0 0 0 1.57,-0.37 5.93,5.93 0 0 0 1.49,-0.83 0.64,0.64 0 0 1 0.93,0.14 l 2,2.47 a 0.72,0.72 0 0 1 0.15,0.41 0.63,0.63 0 0 1 -0.21,0.51 9.07,9.07 0 0 1 -2.73,1.6 9.75,9.75 0 0 1 -3.15,0.71 9.23,9.23 0 0 1 -4.66,-1 8.89,8.89 0 0 1 -3.4,-3.13 8.64,8.64 0 0 1 -1.38,-4.45 9,9 0 0 1 13,-8.4 8,8 0 0 1 4.47,7 3.06,3.06 0 0 1 -0.31,1.34 z m -10.66,-3.82 a 3.67,3.67 0 0 0 -1.25,1.85 l 7.07,-0.27 a 3.43,3.43 0 0 0 -1.4,-1.75 3.8,3.8 0 0 0 -2.28,-0.61 3.61,3.61 0 0 0 -2.14,0.78 z"
             id="path52" />
          <path
             class="cls-4"
             d="m 347.61,30.87 a 0.66,0.66 0 0 1 0.27,0.53 l 0.13,3.3 a 0.69,0.69 0 0 1 -0.25,0.56 1.06,1.06 0 0 1 -0.68,0.24 8.05,8.05 0 0 1 -5.73,-1.61 7.13,7.13 0 0 1 -2.2,-5.41 l -0.23,-5.93 -1.76,0.07 a 0.52,0.52 0 0 1 -0.41,-0.13 0.56,0.56 0 0 1 -0.16,-0.4 l -0.12,-3.1 a 0.52,0.52 0 0 1 0.13,-0.42 0.52,0.52 0 0 1 0.4,-0.17 l 1.76,-0.07 -0.17,-4.45 a 0.68,0.68 0 0 1 0.11,-0.43 0.59,0.59 0 0 1 0.35,-0.26 l 3.9,-1 a 1,1 0 0 1 0.23,0 c 0.29,0 0.45,0.15 0.46,0.5 l 0.21,5.47 2.93,-0.11 a 0.51,0.51 0 0 1 0.57,0.55 l 0.12,3.1 a 0.48,0.48 0 0 1 -0.53,0.57 l -2.91,0.11 0.23,6 a 2.36,2.36 0 0 0 0.74,1.82 2.88,2.88 0 0 0 2,0.49 1,1 0 0 1 0.61,0.18 z"
             id="path54" />
          <path
             class="cls-4"
             d="m 350.67,10.09 a 0.64,0.64 0 0 1 0.14,-0.46 0.62,0.62 0 0 1 0.45,-0.18 l 4.32,-0.17 a 0.67,0.67 0 0 1 0.46,0.15 0.57,0.57 0 0 1 0.17,0.45 l 0.27,16.56 a 0.75,0.75 0 0 1 -0.16,0.46 0.62,0.62 0 0 1 -0.44,0.18 l -3.55,0.14 a 0.64,0.64 0 0 1 -0.45,-0.15 0.72,0.72 0 0 1 -0.19,-0.45 z m 2.2,24.91 a 3.2,3.2 0 0 1 -1.14,-1 3,3 0 0 1 -0.46,-1.5 2.9,2.9 0 0 1 0.35,-1.51 3,3 0 0 1 2.55,-1.58 2.92,2.92 0 0 1 1.51,0.34 3.05,3.05 0 0 1 1.13,1 2.93,2.93 0 0 1 0.46,1.48 3,3 0 0 1 -0.35,1.53 3,3 0 0 1 -1,1.13 2.79,2.79 0 0 1 -1.48,0.47 2.92,2.92 0 0 1 -1.57,-0.36 z"
             id="path56" />
        </g>
      </g>
      <path
         class="cls-5"
         d="m 245.52,137.24 c 0,0 -3.4,-3.58 6.63,2.23 7.17,4.15 31.6,43.86 41.89,61.3 15.35,26 -14.61,39.78 -39.78,53.72 0,0 -5.68,-2.31 -6.32,-3.43 -0.64,-1.12 1.95,-3.85 0.12,-4.56 -1.83,-0.71 -1.18,-2.12 0.05,-3.77 1.23,-1.65 25,-20.43 26.38,-25.81 1.38,-5.38 -29.18,-41.14 -32.26,-46.29 -3.08,-5.15 -6.95,-22.63 3.29,-33.39 z"
         id="path62" />
      <path
         class="cls-5"
         d="m 174.3,136.89 c 0,0 3.4,-3.59 -6.63,2.22 -7.17,4.16 -31.6,43.87 -41.88,61.3 -15.35,26 14.61,39.78 39.78,53.72 0,0 5.67,-2.31 6.31,-3.42 0.64,-1.11 -1.94,-3.85 -0.12,-4.57 1.82,-0.72 1.19,-2.12 0,-3.76 -1.19,-1.64 -25,-20.44 -26.37,-25.82 -1.37,-5.38 29.17,-41.14 32.25,-46.29 3.08,-5.15 6.91,-22.66 -3.34,-33.38 z"
         id="path64" />
      <path
         class="cls-5"
         d="m 222.18,124.55 c -14.65,2.32 -10.52,2.28 -25.28,0 l -1.7,0.84 -24.48,12 2.56,43.44 c 0.16,2.44 0.32,4.8 0.48,7.06 l 0.09,4.6 c 0,0 -1.7,36 -1.29,37.59 0.41,1.59 3.64,5.24 3.64,5.24 -0.12,1 -0.26,2 -0.41,3.1 5.85,2.46 16.72,5.61 33.74,5.46 17,0.15 27.89,-3 33.74,-5.46 -0.15,-1.09 -0.29,-2.13 -0.42,-3.1 0,0 3.25,-3.7 3.65,-5.24 0.4,-1.54 -1.3,-37.59 -1.3,-37.59 l 0.1,-4.6 c 0.16,-2.26 0.32,-4.62 0.48,-7.06 l 2.56,-43.44 -24.48,-11.99 z"
         id="path66" />
      <path
         class="cls-6"
         d="m 209.13,126.27 0.56,0.08 0.59,-0.08 c 2.44,-0.09 5.22,-0.66 11.9,-1.72 l 1.68,0.85 3.4,1.65 -1.09,1.18 c -11.19,12.14 -22.08,12.14 -33.27,0 l -1.09,-1.18 3.39,-1.65 1.7,-0.84 c 6.97,1.07 9.72,1.65 12.23,1.71 z"
         id="path68" />
      <path
         class="cls-7"
         d="m 219.76,97.06 -0.3,7 v 16.57 c 0,1 1,2.58 2.72,3.9 -9,9.78 -16.27,9.78 -25.29,0 1.74,-1.32 2.72,-2.85 2.72,-3.9 v -16.55 l -0.3,-7 c 0,0 5,0.9 10.23,2.18 5.19,-1.26 10.22,-2.2 10.22,-2.2 z"
         id="path70" />
      <path
         class="cls-8"
         d="m 219.46,107.91 v 12.74 c 0,1 1,2.58 2.72,3.9 a 36,36 0 0 1 -4,3.81 l -18.74,-6.8 a 2.61,2.61 0 0 0 0.2,-0.91 V 109 c 4.78,-0.31 13.28,-0.8 19.82,-1.09 z"
         id="path72" />
      <path
         class="cls-8"
         d="m 184.12,86.48 -0.53,0.09 v 0 a 7.23,7.23 0 1 0 6,1.45 c 0.18,2.13 -0.15,4.76 -2.87,5 l 0.08,-4.16 a 2.48,2.48 0 0 0 -2.57,-2.39 z"
         id="path74" />
      <path
         class="cls-8"
         d="m 236.14,86.48 a 4.71,4.71 0 0 1 0.52,0.09 v 0 a 7.2,7.2 0 1 1 -6,1.45 c -0.18,2.13 0.16,4.76 2.87,5 l -0.07,-4.16 A 2.48,2.48 0 0 1 236,86.47 Z"
         id="path76" />
      <path
         class="cls-7"
         d="m 210.13,50.48 v 0 A 24.76,24.76 0 0 0 185.45,75.16 V 97.6 a 24.75,24.75 0 0 0 24.68,24.67 v 0 A 24.74,24.74 0 0 0 234.8,97.6 V 75.16 A 24.74,24.74 0 0 0 210.13,50.48 Z"
         id="path78" />
      <path
         class="cls-9"
         d="m 196.85,301.16 c 0,0 -2,10 -12.92,10 H 148.4 c -4.71,0 -20.19,-5.52 -17.23,-22.48 2.96,-16.96 65.68,12.48 65.68,12.48 z"
         id="path80" />
      <path
         class="cls-10"
         d="m 307.76,265.49 c 1.34,-1.88 10,-17.13 10,-17.13 h -23.19 c -6.6,0 -26.79,4.48 -37.15,4.62 -10.36,0.14 -93.42,-3.91 -93.42,-3.91 0,0 -38.34,-7.4 -43.68,-8.06 -5.34,-0.66 4.38,26.1 6.26,28.25 1.88,2.15 87.22,29.07 94.49,26.65 7.27,-2.42 86.69,-30.42 86.69,-30.42 z"
         id="path82" />
      <path
         class="cls-10"
         d="m 211.76,286.18 c 0,0 82.37,-32.57 92.6,-35.53 10.23,-2.96 17.77,-3.64 22.75,1.48 4.98,5.12 7.26,15.88 0,23.42 -7.26,7.54 -57.61,21.13 -78.34,24.09 -20.73,2.96 -28.87,4.71 -32,5.11 -3.13,0.4 -5,-0.13 -5.86,-2.82 a 68.07,68.07 0 0 1 -2.15,-12.59 c 0.1,-1.81 3,-3.16 3,-3.16 z"
         id="path84" />
      <path
         class="cls-9"
         d="m 236.73,310.74 c 0,0 -0.61,4.38 2.28,4.38 h 21.69 c 7.49,0 21,-1.79 25.76,-7.44 4.76,-5.65 6.83,-10 7.23,-14 0.4,-4 -4.1,-8.81 -9.89,-10 -5.79,-1.19 -19.12,2.28 -23,3.76 -3.88,1.48 -19.09,3.88 -19.64,6.11 -0.55,2.23 -4.43,17.19 -4.43,17.19 z"
         id="path86" />
      <path
         class="cls-6"
         d="M 278,183.28 H 141.86 a 3,3 0 0 0 -3.14,2.85 2.86,2.86 0 0 0 0.08,0.87 l 13.54,72.17 a 4.77,4.77 0 0 0 4.47,3.75 H 263 a 4.76,4.76 0 0 0 4.46,-3.75 L 281,187 a 3,3 0 0 0 -2.19,-3.63 2.8,2.8 0 0 0 -0.81,-0.09 z"
         id="path88" />
      <path
         class="cls-11"
         d="m 230.33,290.82 a 42,42 0 0 0 12,2.83 c 6.46,0.47 4,7 3.84,10.09 -0.16,3.09 -3.7,7.61 -5.25,7.74 -1.55,0.13 -13.39,-3.09 -13.39,-3.09 z"
         id="path90" />
      <path
         class="cls-10"
         d="m 231,289.21 c 0,0 -86.15,-40.11 -100.95,-45.49 -14.8,-5.38 -31.23,-5.93 -36.61,9.68 -5.38,15.61 3,26.39 29.07,36.89 26.07,10.5 99.74,21 102.57,20.59 2.83,-0.41 3.36,-1.14 4.77,-5.18 a 101.91,101.91 0 0 0 3.1,-12.65 c 0.14,-1.15 -0.73,-3.57 -1.95,-3.84 z"
         id="path92" />
      <path
         class="cls-12"
         d="m 246.83,175.84 c 0,0 -1.1,-21.44 2.84,-30"
         id="path94" />
      <path
         class="cls-12"
         d="m 246.72,165.83 c 0,0 -1.91,-10.38 -1.91,-12.88"
         id="path96" />
      <path
         class="cls-12"
         d="m 172.81,175.84 c 0,0 1.09,-21.44 -2.85,-30"
         id="path98" />
      <path
         class="cls-12"
         d="m 172.91,165.83 c 0,0 1.91,-10.38 1.91,-12.88"
         id="path100" />
      <path
         class="cls-13"
         d="m 252.33,183.28 -5.18,-25.72 -1.08,18.28 c 1.64,2.1 3.65,4.65 5.85,7.44 z"
         id="path102" />
      <path
         class="cls-13"
         d="m 282.37,237.92 -4.66,-33.26 -7.71,41.12 a 139.64,139.64 0 0 0 12.37,-7.86 z"
         id="path104" />
      <path
         class="cls-13"
         d="m 149.75,245.38 -6.68,-35.61 -1.23,30.8 q 3.8,2.43 7.91,4.81 z"
         id="path106" />
      <path
         class="cls-14"
         d="m 233,293.05 c 0.13,-1.15 -0.74,-3.57 -2,-3.84 0,0 -67.65,-31.5 -93.35,-42.42"
         id="path108" />
      <path
         class="cls-14"
         d="m 218.69,283.45 c 20.06,-7.91 77.26,-30.37 85.67,-32.8"
         id="path110" />
      <path
         class="cls-10"
         d="m 204.94,106.34 a 6.0004687,6.0004687 0 0 0 12,0.15 v 0 a 1.06,1.06 0 0 0 -1,-1 l -9.88,-0.12 a 1,1 0 0 0 -1,1 z"
         id="path112" />
      <path
         class="cls-15"
         d="m 207.11,111 a 6,6 0 0 0 3.74,1.37 5.88,5.88 0 0 0 3.17,-0.86 4,4 0 0 0 -6.91,-0.51 z"
         id="path114" />
      <path
         class="cls-6"
         d="m 216,105.45 -9.29,-0.11 a 2.1,2.1 0 0 0 1,2.3 c 0.84,0.29 7.56,0.2 8,-0.33 a 3.41,3.41 0 0 0 0.29,-1.86 z"
         id="path116" />
      <path
         class="cls-8"
         d="m 222.81,100.64 a 3,3 0 1 0 0.07,0 z"
         id="path118" />
      <path
         class="cls-8"
         d="m 197.57,100.89 a 3,3 0 1 0 3.07,3 3.06,3.06 0 0 0 -3.07,-3 z"
         id="path120" />
      <path
         class="cls-10"
         d="m 195.89,86 a 0.82088367,0.82088367 0 0 1 -0.77,-1.45 7.69,7.69 0 0 1 7.22,-0.16 0.82173597,0.82173597 0 1 1 -0.81,1.43 6,6 0 0 0 -5.64,0.18 z"
         id="path122" />
      <path
         class="cls-10"
         d="m 224.48,85.13 a 6,6 0 0 0 -5.65,0.12 0.82257219,0.82257219 0 1 1 -0.88,-1.39 7.67,7.67 0 0 1 7.22,-0.22 0.82,0.82 0 0 1 0.4,1.09 v 0 a 0.82,0.82 0 0 1 -1.09,0.4 z"
         id="path124" />
      <path
         class="cls-10"
         d="m 222.13,91.07 v 0 a 2,2 0 0 1 2.05,1.93 l 0.07,2.6 a 2,2 0 0 1 -1.95,2 v 0 a 2,2 0 0 1 -2.05,-1.94 l -0.07,-2.6 a 2,2 0 0 1 1.95,-1.99 z"
         id="path126" />
      <path
         class="cls-10"
         d="m 198.56,91.77 v 0 a 2,2 0 0 0 -1.94,2.06 v 0 l 0.07,2.6 a 2,2 0 0 0 2.05,1.94 v 0 a 2,2 0 0 0 1.94,-2.05 l -0.07,-2.6 a 2,2 0 0 0 -2.05,-2 z"
         id="path128" />
      <path
         class="cls-16"
         d="m 210.34,98 1.19,3.35 c 0,0 0.17,1 -1.34,1 -1.51,0 -0.65,-4.35 0.15,-4.35 z"
         id="path130" />
      <path
         class="cls-10"
         d="m 200.26,69.4 c -2.66,0 -7.8,1.26 -7.8,6.57 0,5.31 -1,9.52 -4.39,9.52 v 4.16 c 0,2.33 -0.23,4.69 -2.43,4.69 0,-5 -1.52,-7 -1.52,-7 V 74.8 c 0,-5.86 1.65,-13.73 9.34,-19.13 a 29.8,29.8 0 0 1 33.76,0 c 7.69,5.4 9.33,13.27 9.33,19.13 v 12.56 c 0,0 -1.52,2 -1.52,7 -2.2,0 -2.43,-2.36 -2.43,-4.69 v -4.18 c -3.38,0 -4.39,-4.21 -4.39,-9.52 0,-5.31 -5.14,-6.57 -7.8,-6.57 z"
         id="path132" />
      <path
         class="cls-10"
         d="m 192.43,71 c 0,0 -5.89,-3.54 -6.18,-8 -0.52,-8.17 11.09,-21.15 21.79,-16 24,-10.75 38.68,5.58 18.36,24 l -0.28,0.25 a 9.39,9.39 0 0 0 -5.71,-1.87 h -20.15 a 8.88,8.88 0 0 0 -6.3,2.43 C 193,71.35 192.43,71 192.43,71 Z"
         id="path134" />
      <path
         class="cls-10"
         d="m 187.6,65 a 0.35,0.35 0 0 1 -0.06,0.48 0.29,0.29 0 0 1 -0.42,0 v 0 c 0,0 -4.19,-5.61 0.8,-13 a 0.31,0.31 0 0 1 0.44,-0.09 v 0 a 0.36,0.36 0 0 1 0.06,0.48 C 183.71,59.81 187.59,65 187.6,65 Z"
         id="path136" />
      <path
         class="cls-10"
         d="m 192.77,51.83 a 0.32,0.32 0 0 1 -0.45,0.08 v 0 a 0.35,0.35 0 0 1 -0.06,-0.48 c 0,0 6.09,-8.83 12.67,-8.93 6.83,-0.11 5.18,7.37 5.17,7.39 a 0.32,0.32 0 0 1 -0.37,0.26 v 0 a 0.34,0.34 0 0 1 -0.24,-0.41 c 0,0 1.47,-6.65 -4.54,-6.56 -6.28,0.09 -12.17,8.63 -12.18,8.65 z"
         id="path138" />
      <path
         class="cls-10"
         d="m 218.51,44.86 a 0.3,0.3 0 0 1 -0.4,-0.14 0.35,0.35 0 0 1 0.17,-0.45 18.92,18.92 0 0 1 12.29,-0.72 10,10 0 0 1 4.39,2.62 8.68,8.68 0 0 1 2.16,3.83 9.06,9.06 0 0 1 0,4.68 13.55,13.55 0 0 1 -3.19,5.53 0.3,0.3 0 0 1 -0.44,0 v 0 a 0.38,0.38 0 0 1 0,-0.49 12.85,12.85 0 0 0 3,-5.24 8.51,8.51 0 0 0 0,-4.31 8.12,8.12 0 0 0 -2,-3.51 9.41,9.41 0 0 0 -4.11,-2.45 18.39,18.39 0 0 0 -11.87,0.65 z"
         id="path140" />
      <path
         id="Path_40"
         data-name="Path 40"
         class="cls-17"
         d="m 212.5,222.62 h 8.56 a 0.82,0.82 0 0 1 1,0.62 0.65,0.65 0 0 1 0,0.24 c 0,1.06 0.19,4.28 -2.07,6.68 a 9.9,9.9 0 0 1 -3.88,2.86 l -4.23,-4.3 v -6.12 z" />
      <path
         id="Path_41"
         data-name="Path 41"
         class="cls-18"
         d="m 212.46,214.26 c 0,0 0.1,-0.72 -0.81,-0.72 h -11.77 a 0.7,0.7 0 0 0 -0.85,0.48 0.65,0.65 0 0 0 0,0.24 v 11.29 a 7.42,7.42 0 0 0 2.4,5.43 8.43,8.43 0 0 0 5.82,2.45 h 6.14 c 0,0 2.55,0 3.51,-0.82 a 8.51,8.51 0 0 1 -0.83,-0.55 9.06,9.06 0 0 1 -1.72,-1.61 8.35,8.35 0 0 1 -1.78,-4.29 29.87,29.87 0 0 1 -0.05,-3.54 z" />
      <path
         id="Rectangle_45"
         data-name="Rectangle 45"
         class="cls-19"
         d="m 201.18,216.18 h 9 a 0.5,0.5 0 0 1 0.5,0.5 v 0 a 0.5,0.5 0 0 1 -0.5,0.5 h -9 a 0.5,0.5 0 0 1 -0.5,-0.5 v 0 a 0.5,0.5 0 0 1 0.5,-0.5 z" />
      <path
         id="Rectangle_46"
         data-name="Rectangle 46"
         class="cls-19"
         d="m 201.18,218.06 h 9 a 0.5,0.5 0 0 1 0.5,0.5 v 0 a 0.5,0.5 0 0 1 -0.5,0.5 h -9 a 0.5,0.5 0 0 1 -0.5,-0.5 v 0 a 0.5,0.5 0 0 1 0.5,-0.5 z" />
      <path
         id="Rectangle_49"
         data-name="Rectangle 49"
         class="cls-19"
         d="m 201.18,219.94 h 2.25 a 0.5,0.5 0 0 1 0.5,0.5 v 0 a 0.5,0.5 0 0 1 -0.5,0.5 h -2.25 a 0.5,0.5 0 0 1 -0.5,-0.5 v 0 a 0.5,0.5 0 0 1 0.5,-0.5 z" />
      <path
         id="Rectangle_48"
         data-name="Rectangle 48"
         class="cls-19"
         d="m 205.06,219.94 h 5.14 a 0.5,0.5 0 0 1 0.5,0.5 v 0 a 0.5,0.5 0 0 1 -0.5,0.5 h -5.14 a 0.5,0.5 0 0 1 -0.5,-0.5 v 0 a 0.5,0.5 0 0 1 0.5,-0.5 z" />
      <path
         id="Rectangle_50"
         data-name="Rectangle 50"
         class="cls-19"
         d="m 206.82,221.82 h 3.38 a 0.5,0.5 0 0 1 0.5,0.5 v 0 a 0.5,0.5 0 0 1 -0.5,0.5 h -3.38 a 0.5,0.5 0 0 1 -0.51,-0.49 v 0 a 0.5,0.5 0 0 1 0.5,-0.5 z" />
      <g
         class="cls-3"
         id="g215"
         transform="translate(-1.2239615,4.2838654)">
        <text
           xml:space="preserve"
           style="font-style:normal;font-weight:normal;font-size:40px;line-height:1.25;font-family:Symbol;fill:#fda734;fill-opacity:1;stroke:none;-inkscape-font-specification:'Symbol, Normal';font-stretch:normal;font-variant:normal;font-variant-ligatures:normal;font-variant-caps:normal;font-variant-numeric:normal;font-variant-east-asian:normal;"
           x="122.39615"
           y="345.15714"
           id="text1146"><tspan
             sodipodi:role="line"
             id="tspan1144"
             x="122.39615"
             y="345.15714">Add Item</tspan></text>
      </g>
      <g
         id="Layer_4"
         data-name="Layer 4"
         transform="translate(-69.765808,0.61198077)">
        <path
           class="cls-20"
           d="m 411.7,334.25 -5.6,-5.6 a 2.1213203,2.1213203 0 0 0 -3,3 l 4.11,4.12 -4.11,4.12 a 2.11,2.11 0 0 0 1.48,3.59 2.08,2.08 0 0 0 1.49,-0.62 l 5.6,-5.6 a 2.11,2.11 0 0 0 0.06,-3 z"
           id="path218" />
        <path
           class="cls-20"
           d="m 401.89,334.25 -5.6,-5.6 a 2.1213203,2.1213203 0 0 0 -3,3 l 4.11,4.12 -4.11,4.12 a 2.11,2.11 0 0 0 1.48,3.59 2.08,2.08 0 0 0 1.49,-0.62 l 5.6,-5.6 a 2.11,2.11 0 0 0 0.06,-3 z"
           id="path220" />
      </g>
    </g>
  </g>
</svg>
